<?xml version="1.0" encoding="utf-8"?>
<!-- Generator: Adobe Illustrator 23.0.1, SVG Export Plug-In . SVG Version: 6.00 Build 0)  -->
<svg version="1.1" baseProfile="tiny" id="Layer_1" xmlns="http://www.w3.org/2000/svg" xmlns:xlink="http://www.w3.org/1999/xlink"
	 x="0px" y="0px" viewBox="0 0 82 75.92" xml:space="preserve">
<g>
	<path fill="#34AD7B" d="M73.78,67.76c0.25-0.27,0.48-0.56,0.7-0.86c-1.34,0.99-2.92,1.9-4.74,2.71c-1.34,0.99-2.68,1.77-4.02,2.35
		C69.08,71.3,71.83,69.92,73.78,67.76z"/>
	<path fill="#34AD7B" d="M17.25,48.12C12.6,49.1,8.66,49.3,6.05,49.43c-1.16,0.06-2.35,0.12-2.9,0.24c0.53,0.28,1.79,0.69,3.02,1.08
		c2.4,0.77,5.7,1.83,9.49,3.58c3.52,1.62,6.91,3.59,10.08,5.86c10.13,6.26,20.02,10.2,28.37,11.62
		c-7.85-3.63-15.16-14.14-20.11-28.77c-2.3,0.61-4.64,1.3-7.02,2.08C23.85,46.41,20.57,47.42,17.25,48.12z"/>
	<path d="M74.47,66.9c-0.22,0.3-0.45,0.59-0.7,0.86c-1.94,2.15-4.7,3.54-8.07,4.2c-1.88,0.82-3.75,1.24-5.6,1.24
		c-0.03,0-0.05,0-0.08,0c-1.98-0.01-3.96-0.49-5.91-1.39c-8.35-1.42-18.25-5.36-28.37-11.62c-3.17-2.26-6.56-4.23-10.08-5.86
		c-3.8-1.75-7.09-2.81-9.49-3.58c-1.23-0.39-2.5-0.8-3.02-1.08c0.55-0.12,1.74-0.18,2.9-0.24c2.61-0.13,6.55-0.33,11.19-1.31
		c3.32-0.7,6.61-1.71,9.74-3c2.38-0.78,4.73-1.47,7.02-2.08c-0.1-0.29-0.2-0.58-0.3-0.87c-2.31,0.61-4.66,1.31-7.05,2.09
		c-3.11,1.28-6.34,2.27-9.61,2.96c-4.58,0.96-8.47,1.16-11.05,1.29c-2.73,0.14-3.86,0.19-3.97,1.01C1.92,50.36,3,50.7,5.9,51.63
		c2.38,0.77,5.65,1.81,9.39,3.54c3.47,1.6,6.81,3.54,9.95,5.79c13.09,8.09,25.83,12.34,35.5,12.34c5.95,0,10.73-1.61,13.72-4.92
		c0.87-0.97,1.59-2.1,2.16-3.38C75.99,65.66,75.28,66.3,74.47,66.9z"/>
	<path d="M79.25,52.13c-0.06-1.76-0.42-3.35-1.12-4.75c-0.67-1.35-1.64-2.54-2.87-3.58C77.16,46.69,78.5,49.49,79.25,52.13z"/>
	<path fill="#34AD7B" d="M48.75,28.3c-1.21,1.92-1.81,4.21-1.76,6.65c0.03,0.01,0.07,0.02,0.1,0.04c0.18,0.07,0.26,0.27,0.21,0.45
		c1.21,1.46,2.4,2.9,3.62,4.42c0.2-1.81,0.8-4.15,2.39-6.47c1.86-2.71,4.22-4.17,5.94-4.93c-1.85-1.48-3.81-2.95-5.88-4.4
		c-0.01,0.01-0.02,0.03-0.04,0.03C51.39,25.15,49.84,26.57,48.75,28.3z"/>
	<path fill="#34AD7B" d="M38.93,26.56c-0.7-0.89-1.43-1.86-2.2-2.87c-0.9-0.53-2.13-1.04-3.62-1.12c-0.98-0.06-1.96,0.08-2.92,0.39
		c0.2,1.05,0.37,2,0.51,2.83c0.1,0.56,0.18,1.08,0.27,1.57c1.16-0.6,2.82-1.2,4.83-1.23C36.87,26.13,37.91,26.27,38.93,26.56z"/>
	<path fill="#34AD7B" d="M45.62,25.83c-0.95,1.88-1.31,4.03-1.06,6.28c0.58,0.7,1.14,1.38,1.7,2.06c0.08-2.29,0.72-4.43,1.87-6.26
		c1.11-1.76,2.66-3.2,4.61-4.31c-1.03-0.71-2.09-1.42-3.17-2.12C47.82,22.66,46.48,24.11,45.62,25.83z"/>
	<path fill="#34AD7B" d="M42.16,30.62c-0.16-0.2-0.32-0.39-0.48-0.59c-0.02,0.01-0.02,0.03-0.04,0.03
		c-0.02,0.01-0.05,0.01-0.07,0.01c-0.11,0-0.21-0.07-0.24-0.18c-0.05-0.15-0.09-0.31-0.14-0.48c-0.55-0.68-1.12-1.4-1.7-2.15
		c-1.19-0.44-2.42-0.66-3.68-0.64c-2,0.03-3.63,0.65-4.75,1.24c0.31,1.62,0.65,3.2,1.02,4.75c1.27-0.91,3.16-1.92,5.58-2.26
		C39.17,30.17,40.68,30.26,42.16,30.62z"/>
	<path fill="#34AD7B" d="M59.7,38.79c-2,2.25-2.9,5.4-2.6,9.12c0,0.02,0,0.03-0.01,0.05c0.6,0.83,1.2,1.66,1.79,2.5
		c0.85-2.82,2.3-5.46,4.24-7.67c1.76-2.01,3.88-3.65,6.3-4.9c-0.84-0.93-1.74-1.87-2.68-2.81C63.73,35.68,61.36,36.93,59.7,38.79z"
		/>
	<path fill="#34AD7B" d="M59.76,29.05c-1.65,0.7-3.99,2.1-5.82,4.76c-1.75,2.55-2.24,5.11-2.33,6.91c0.17,0.21,0.34,0.43,0.51,0.65
		c0.03,0.02,0.07,0.03,0.1,0.05c0.13,0.07,0.2,0.2,0.2,0.34c1.31,1.68,2.61,3.37,3.89,5.11c-0.07-3.45,0.89-6.39,2.83-8.57
		c1.68-1.88,4.03-3.16,6.97-3.84c-1.89-1.84-3.97-3.68-6.22-5.51C59.85,28.99,59.81,29.02,59.76,29.05z"/>
	<path fill="#34AD7B" d="M37.9,23.71c-0.15-0.98-0.17-2.16,0.11-3.44c0.42-1.97,1.38-3.42,2.2-4.37c-1.1-0.62-2.35-1.37-3.76-2.3
		c-0.6,0.83-1.2,1.96-1.46,3.42c-0.18,1.03-0.15,1.96-0.02,2.77c0.59,0.8,1.18,1.61,1.77,2.4C37.15,22.72,37.52,23.21,37.9,23.71z"
		/>
	<path fill="#34AD7B" d="M31.73,13.12c0.16-0.92,0.5-1.66,0.87-2.23c-1.7-1.28-3.1-2.44-4.2-3.35c-1.39-1.15-2.83-2.34-3.27-2.34
		c-0.02,0-0.03,0-0.04,0c-0.04,0.06-0.04,0.18-0.02,0.34c2.16,3.3,4.4,6.59,6.72,9.84C31.65,14.74,31.58,13.98,31.73,13.12z"/>
	<path fill="#34AD7B" d="M26.28,9.38c0.58,1.6,1.3,3.59,2.03,5.98c0.27,0.91,0.51,1.75,0.72,2.56c0.72-0.2,1.61-0.32,2.59-0.14
		c0.31,0.06,0.62,0.14,0.92,0.25c-2.25-3.11-4.43-6.25-6.54-9.42C26.09,8.87,26.18,9.12,26.28,9.38z"/>
	<path fill="#34AD7B" d="M34.75,16.98c0.26-1.5,0.88-2.66,1.5-3.51c-0.62-0.41-1.26-0.84-1.93-1.32c-0.53-0.38-1.03-0.74-1.51-1.11
		c-0.34,0.55-0.67,1.24-0.82,2.12c-0.19,1.13-0.02,2.09,0.22,2.79c0.82,1.15,1.65,2.29,2.48,3.43
		C34.59,18.66,34.59,17.85,34.75,16.98z"/>
	<path fill="#34AD7B" d="M36.36,23.21c-0.12-0.16-0.23-0.3-0.35-0.46c-0.24-0.32-0.47-0.64-0.71-0.96c0-0.01-0.01,0-0.01-0.01
		c0-0.01-0.01-0.01-0.01-0.02c-0.82-1.11-1.65-2.21-2.46-3.33c-0.4-0.18-0.82-0.33-1.25-0.41c-0.94-0.17-1.79-0.06-2.48,0.14
		c0.45,1.71,0.78,3.23,1.04,4.56c0.98-0.31,1.98-0.45,2.98-0.4C34.41,22.39,35.5,22.77,36.36,23.21z"/>
	<path fill="#34AD7B" d="M38.24,24.15c0.93,1.21,1.79,2.32,2.62,3.37c-0.11-1.22-0.06-2.64,0.39-4.17c0.69-2.35,2-4.01,3.16-5.09
		c-0.22-0.13-0.44-0.26-0.66-0.39c-0.44-0.26-0.95-0.54-1.54-0.86c-0.53-0.29-1.13-0.62-1.78-0.99c-0.81,0.92-1.76,2.35-2.18,4.29
		C37.94,21.79,38.03,23.1,38.24,24.15z"/>
	<path fill="#34AD7B" d="M41.72,23.49c-0.53,1.81-0.49,3.46-0.27,4.79c0.89,1.12,1.74,2.16,2.55,3.16
		c-0.11-2.08,0.28-4.07,1.17-5.83c0.88-1.73,2.21-3.21,3.94-4.43c-1.38-0.89-2.81-1.77-4.27-2.65
		C43.71,19.56,42.4,21.18,41.72,23.49z"/>
	<path fill="#34AD7B" d="M69.26,50.65c-2.14,2.45-3.67,5.41-4.42,8.58c-0.01,0.04-0.03,0.08-0.05,0.12
		c1.84,2.93,3.63,5.91,5.36,8.96c4.23-2.04,6.97-4.61,8.11-7.66c1.55-4.15,0.46-9.26-2.82-14.78
		C73.06,47.08,70.98,48.69,69.26,50.65z"/>
	<path fill="#34AD7B" d="M62.95,59.14c-2.66,0.09-5.32,0.69-7.75,1.78c-2.53,1.13-4.8,2.73-6.74,4.76c-0.1,0.1-0.23,0.15-0.36,0.15
		c-0.12,0-0.25-0.05-0.35-0.14c-0.2-0.19-0.21-0.51-0.02-0.71c2.03-2.13,4.41-3.81,7.06-4.99c2.35-1.05,4.9-1.67,7.47-1.83
		l-4.25-5.93c-2.03-0.27-4.67-0.23-7.56,0.84c-4.18,1.55-6.68,4.46-7.86,6.16c5.18,8.14,11.3,12.93,17.44,12.97
		c3-0.02,6.05-1.13,9.14-3.43c0.03-0.02,0.06-0.04,0.1-0.06c0.01-0.01,0.02-0.01,0.04-0.02c-0.69-1.22-1.39-2.43-2.1-3.63
		L62.95,59.14z"/>
	<path fill="#34AD7B" d="M46.63,46.68c2.98-0.77,5.61-0.39,7.54,0.21l-3.93-5.49c-1.74-0.58-4.35-1.06-7.32-0.27
		c-3.09,0.82-5.17,2.61-6.37,3.97c-0.07,0.08-0.18,0.13-0.28,0.13c-0.09,0-0.18-0.03-0.25-0.09c-0.16-0.14-0.17-0.37-0.03-0.53
		c1.27-1.44,3.47-3.33,6.74-4.2c2.64-0.7,5.02-0.45,6.8,0.01l-3.64-5.08c-2.14-0.7-4.32-0.81-6.38-0.32
		c-1.98,0.47-3.82,1.48-5.46,2.99c-0.07,0.07-0.16,0.1-0.25,0.1c-0.1,0-0.2-0.04-0.28-0.12c-0.14-0.15-0.13-0.39,0.02-0.53
		c1.74-1.6,3.69-2.67,5.8-3.17c1.89-0.45,3.88-0.42,5.85,0.07L45,34.1c-0.18-0.22-0.37-0.45-0.56-0.68
		c-0.11-0.01-0.21-0.08-0.23-0.2c-0.01-0.03-0.01-0.06-0.01-0.1c-0.5-0.61-1.02-1.24-1.54-1.88c-0.02,0-0.03,0.01-0.05,0
		c-1.6-0.48-3.24-0.6-4.88-0.38c-2.44,0.34-4.3,1.38-5.52,2.29c1.7,7.09,3.91,13.49,6.49,18.96C39.82,50.58,42.36,47.77,46.63,46.68
		z"/>
	<path fill="#34AD7B" d="M50.1,52.14c2.66-0.98,5.11-1.14,7.13-0.98l-2.3-3.2c-1.86-0.74-4.74-1.42-8.11-0.55
		c-4.37,1.12-6.84,4.15-7.75,5.49c0.94,1.93,1.92,3.75,2.95,5.43C43.35,56.49,45.94,53.68,50.1,52.14z"/>
	<path fill="#34AD7B" d="M63.88,43.44c-2.02,2.31-3.48,5.1-4.24,8.08c0.07,0.02,0.15,0.03,0.22,0.05c0.27,0.06,0.43,0.33,0.37,0.6
		c-0.01,0.05-0.04,0.1-0.07,0.14c1.31,1.91,2.6,3.85,3.86,5.83c0.03,0,0.05,0,0.08,0c0.85-3,2.36-5.8,4.41-8.14
		c1.79-2.04,3.95-3.71,6.41-4.99c-1.31-2.08-2.92-4.2-4.81-6.36C67.71,39.86,65.61,41.47,63.88,43.44z"/>
	<path d="M33.31,10.33c-0.16,0.19-0.34,0.43-0.51,0.71c0.48,0.36,0.98,0.73,1.51,1.11c0.68,0.48,1.32,0.92,1.93,1.32
		c0.22-0.3,0.43-0.56,0.64-0.78c-0.63-0.42-1.29-0.87-1.99-1.36c-0.56-0.4-1.09-0.79-1.59-1.16C33.34,10.21,33.35,10.28,33.31,10.33
		z"/>
	<path d="M24.79,5.11c0.09,0.14,0.19,0.29,0.29,0.43c-0.02-0.15-0.02-0.28,0.02-0.34c0.01,0,0.03,0,0.04,0
		c0.44,0,1.87,1.19,3.27,2.34c1.09,0.91,2.5,2.07,4.2,3.35c0.18-0.28,0.36-0.53,0.52-0.72c0.04-0.05,0.11-0.05,0.16-0.02
		c-1.69-1.27-3.08-2.41-4.24-3.38c-2.5-2.07-3.64-3.01-4.51-2.39c-0.21,0.15-0.34,0.36-0.4,0.62c0.01-0.01,0.01-0.02,0.02-0.02
		C24.36,4.84,24.65,4.9,24.79,5.11z"/>
	<path d="M79.93,56.62v-0.26c-0.03-1.35-0.27-2.77-0.68-4.23c-0.75-2.64-2.09-5.44-3.99-8.33c-5.78-8.8-16.64-18.4-31.02-26.8
		c-0.45-0.26-0.97-0.55-1.56-0.87c-0.47-0.26-0.98-0.54-1.53-0.85c-0.21,0.19-0.46,0.44-0.73,0.74c0.65,0.37,1.24,0.69,1.78,0.99
		c0.58,0.32,1.09,0.6,1.54,0.86c0.22,0.13,0.44,0.26,0.66,0.39c0.21-0.2,0.42-0.38,0.61-0.54c0.11-0.09,0.26-0.07,0.35,0.04
		c0.09,0.11,0.07,0.26-0.04,0.35c-0.16,0.13-0.32,0.27-0.48,0.42c1.46,0.87,2.88,1.75,4.27,2.65c0.17-0.12,0.32-0.25,0.5-0.37
		c0.11-0.07,0.27-0.04,0.34,0.08s0.04,0.27-0.08,0.35c-0.12,0.07-0.21,0.16-0.32,0.24c1.08,0.7,2.14,1.41,3.17,2.12
		c0.09-0.05,0.17-0.11,0.26-0.16c0.18-0.1,0.41-0.03,0.51,0.15c0.09,0.17,0.04,0.36-0.11,0.47c2.07,1.45,4.03,2.92,5.88,4.4
		c0.06-0.03,0.13-0.06,0.19-0.09c0.19-0.08,0.41,0.01,0.49,0.2c0.06,0.14,0.03,0.28-0.06,0.39c2.25,1.83,4.33,3.67,6.22,5.51
		c0.22-0.05,0.44-0.11,0.67-0.15c0.21-0.04,0.4,0.1,0.44,0.3c0.04,0.2-0.09,0.4-0.3,0.44c-0.06,0.01-0.11,0.03-0.17,0.04
		c0.94,0.94,1.84,1.87,2.68,2.81c0.13-0.07,0.25-0.15,0.39-0.21c0.25-0.12,0.55-0.02,0.67,0.23c0.12,0.25,0.02,0.55-0.23,0.67
		c-0.05,0.03-0.1,0.06-0.15,0.08c1.89,2.15,3.5,4.28,4.81,6.36c0.14-0.07,0.27-0.16,0.41-0.23c0.25-0.12,0.55-0.02,0.67,0.23
		c0.12,0.25,0.02,0.55-0.23,0.67c-0.12,0.06-0.22,0.13-0.33,0.18c3.28,5.53,4.37,10.64,2.82,14.78c-1.14,3.05-3.88,5.62-8.11,7.66
		c0.07,0.13,0.15,0.26,0.23,0.39c0.12,0.22,0.05,0.5-0.18,0.63c-0.07,0.04-0.15,0.06-0.23,0.06c-0.16,0-0.32-0.08-0.4-0.24
		c-0.08-0.15-0.17-0.29-0.26-0.44c-0.01,0.01-0.02,0.01-0.04,0.02c-0.03,0.01-0.07,0.03-0.1,0.06c-3.09,2.29-6.15,3.41-9.14,3.43
		c-6.15-0.04-12.26-4.82-17.44-12.97c-0.04,0.05-0.08,0.11-0.12,0.17c-0.1,0.14-0.25,0.22-0.42,0.22c-0.1,0-0.19-0.03-0.28-0.08
		c-0.23-0.15-0.29-0.46-0.14-0.69c0.11-0.16,0.24-0.34,0.37-0.52c-1.02-1.68-2.01-3.5-2.95-5.43c-0.02,0.03-0.04,0.06-0.06,0.09
		c-0.07,0.11-0.19,0.17-0.31,0.17c-0.07,0-0.14-0.02-0.21-0.06c-0.17-0.12-0.22-0.35-0.1-0.52c0.08-0.13,0.2-0.29,0.32-0.44
		c-2.58-5.47-4.79-11.87-6.49-18.96c-0.11,0.08-0.22,0.17-0.32,0.24c-0.05,0.04-0.1,0.05-0.16,0.05c-0.07,0-0.15-0.03-0.2-0.09
		c-0.09-0.11-0.07-0.27,0.04-0.35c0.16-0.12,0.32-0.25,0.51-0.38c-0.36-1.55-0.7-3.14-1.02-4.75c-0.15,0.08-0.28,0.15-0.41,0.23
		c-0.04,0.02-0.08,0.03-0.13,0.03c-0.09,0-0.17-0.04-0.22-0.12c-0.07-0.12-0.03-0.27,0.09-0.34c0.17-0.1,0.37-0.2,0.57-0.31
		c-0.09-0.49-0.18-1-0.27-1.57c-0.14-0.83-0.3-1.78-0.51-2.83c-0.2,0.06-0.39,0.12-0.59,0.2c-0.06,0.02-0.14,0-0.16-0.07
		c-0.03-0.06,0-0.14,0.07-0.16c0.21-0.08,0.42-0.15,0.63-0.22c-0.26-1.33-0.59-2.85-1.04-4.56c-0.36,0.1-0.68,0.23-0.94,0.35
		c0.81,3.12,1.23,5.56,1.55,7.46c0.12,0.71,0.23,1.35,0.34,1.94c0.98,5.07,2.21,9.84,3.66,14.26c0.1,0.29,0.2,0.58,0.3,0.87
		c4.96,14.63,12.26,25.15,20.11,28.77c1.95,0.9,3.92,1.38,5.91,1.39c0.03,0,0.05,0,0.08,0c1.85,0,3.72-0.42,5.6-1.24
		c1.34-0.58,2.68-1.36,4.02-2.35c1.83-0.81,3.4-1.72,4.74-2.71c0.81-0.6,1.52-1.24,2.14-1.9c1.16-1.23,2.04-2.56,2.58-4
		C79.71,59.63,79.94,58.17,79.93,56.62z"/>
	<path d="M36.45,13.61c1.41,0.93,2.66,1.67,3.76,2.3c0.26-0.3,0.51-0.54,0.72-0.74c-1.11-0.63-2.39-1.39-3.84-2.33
		C36.89,13.05,36.67,13.31,36.45,13.61z"/>
	<path d="M29.03,17.92c-0.22-0.81-0.45-1.66-0.72-2.56c-0.72-2.39-1.45-4.38-2.03-5.98C26.18,9.12,26.09,8.87,26,8.61
		c-0.63-0.95-1.27-1.89-1.88-2.84c0.11,0.87,0.56,2.12,1.22,3.94c0.58,1.59,1.29,3.56,2.01,5.93c0.28,0.93,0.52,1.79,0.74,2.62
		C28.35,18.14,28.67,18.02,29.03,17.92z"/>
	<path fill="#34AD7B" d="M45,34.1l0.19,0.26c0.01,0,0.03,0.01,0.04,0.01C45.15,34.28,45.07,34.19,45,34.1z"/>
	<path fill="#34AD7B" d="M50.24,41.4l3.93,5.49c0.52,0.16,0.98,0.34,1.39,0.51c-1.4-1.91-2.83-3.77-4.27-5.6
		C50.99,41.67,50.64,41.54,50.24,41.4z"/>
	<path fill="#34AD7B" d="M59.13,52.43c-0.35-0.07-0.72-0.14-1.12-0.19l4.25,5.93c0.22-0.01,0.45-0.03,0.67-0.04
		C61.69,56.2,60.42,54.31,59.13,52.43z"/>
	<path fill="#34AD7B" d="M62.95,59.14l4.25,5.93c-1.19-2.01-2.41-3.99-3.65-5.94C63.36,59.13,63.15,59.13,62.95,59.14z"/>
	<path fill="#34AD7B" d="M54.93,47.95l2.3,3.2c0.38,0.03,0.75,0.07,1.1,0.12c-0.61-0.87-1.23-1.73-1.84-2.59
		C56.11,48.48,55.59,48.21,54.93,47.95z"/>
	<path fill="#34AD7B" d="M50.37,40.62c-1.34-1.67-2.63-3.23-3.97-4.84c-0.04-0.03-0.07-0.07-0.09-0.11
		c-0.03-0.04-0.06-0.07-0.09-0.11c-0.04-0.05-0.08-0.1-0.12-0.15c-0.07-0.02-0.13-0.05-0.2-0.07l3.64,5.08
		c0.31,0.08,0.6,0.16,0.87,0.25C50.39,40.66,50.38,40.64,50.37,40.62z"/>
	<path d="M42.75,30.77c0.13,0.04,0.21,0.18,0.17,0.31c-0.03,0.12-0.15,0.17-0.26,0.16c0.53,0.65,1.04,1.27,1.54,1.88
		c-0.1-0.57-0.17-1.13-0.2-1.69c-0.81-0.99-1.66-2.04-2.55-3.16c0.09,0.55,0.21,1.05,0.35,1.48c0.04,0.11-0.03,0.22-0.12,0.28
		c0.16,0.2,0.32,0.39,0.48,0.59C42.35,30.67,42.55,30.71,42.75,30.77z"/>
	<path d="M46.94,35.7c-0.06,0.09-0.16,0.16-0.28,0.17c-0.01,0-0.01,0-0.02,0c-0.09,0-0.17-0.03-0.24-0.09
		c1.34,1.61,2.63,3.17,3.97,4.84c0.01,0.02,0.02,0.03,0.04,0.05c0.16,0.05,0.31,0.1,0.45,0.15c0.01-0.3,0.04-0.63,0.08-0.97
		c-1.22-1.52-2.41-2.95-3.62-4.42c0,0.01,0,0.03-0.01,0.04C47.24,35.62,47.09,35.71,46.94,35.7z"/>
	<path d="M36.36,23.21c0.71,0.36,1.26,0.76,1.64,1.08c-0.04-0.19-0.08-0.38-0.11-0.58c-0.38-0.49-0.75-0.99-1.15-1.51
		c-0.6-0.79-1.18-1.6-1.77-2.4c0.12,0.75,0.33,1.39,0.54,1.89c0.03,0.06,0,0.14-0.07,0.16c-0.02,0.01-0.03,0.01-0.05,0.01
		c-0.04,0-0.08-0.03-0.1-0.07c0.24,0.32,0.47,0.64,0.71,0.96C36.13,22.91,36.24,23.05,36.36,23.21z"/>
	<path d="M59.62,52.54c-0.15-0.04-0.33-0.07-0.5-0.11c1.29,1.87,2.56,3.77,3.81,5.7c0.36-0.01,0.73-0.01,1.09,0
		c-1.26-1.97-2.55-3.91-3.86-5.83C60.05,52.49,59.84,52.59,59.62,52.54z"/>
	<path d="M57.1,48.61c-0.1,0.18-0.34,0.24-0.51,0.14c-0.03-0.02-0.07-0.04-0.1-0.06c0.62,0.86,1.24,1.72,1.84,2.59
		c0.11,0.02,0.22,0.03,0.32,0.05c0.07-0.29,0.15-0.58,0.24-0.87c-0.59-0.84-1.19-1.67-1.79-2.5c0,0.07-0.03,0.14-0.07,0.2
		C57.16,48.27,57.19,48.46,57.1,48.61z"/>
	<path d="M52.38,41.91c-0.09,0.18-0.32,0.26-0.5,0.17c-0.16-0.08-0.36-0.17-0.59-0.27c1.44,1.83,2.87,3.69,4.27,5.6
		c0.29,0.12,0.55,0.25,0.78,0.36c-0.02-0.31-0.03-0.61-0.04-0.91c-1.27-1.74-2.57-3.44-3.89-5.11
		C52.42,41.8,52.41,41.86,52.38,41.91z"/>
	<path d="M64.35,59.61c-0.04,0-0.08,0-0.12-0.01c-0.22-0.05-0.37-0.25-0.37-0.47c-0.1,0-0.2,0-0.3,0c1.24,1.95,2.46,3.93,3.65,5.94
		c0.71,1.2,1.41,2.41,2.1,3.63c0.08,0.15,0.17,0.29,0.26,0.44c0.08,0.15,0.24,0.24,0.4,0.24c0.08,0,0.16-0.02,0.23-0.06
		c0.22-0.13,0.3-0.41,0.18-0.63c-0.07-0.13-0.15-0.26-0.23-0.39c-1.73-3.05-3.52-6.03-5.36-8.96C64.7,59.51,64.53,59.61,64.35,59.61
		z"/>
	<path d="M51.61,40.71c0,0.09-0.01,0.19-0.02,0.28c0,0.04-0.01,0.08-0.03,0.11c0.21,0.09,0.39,0.17,0.55,0.25
		C51.95,41.14,51.78,40.93,51.61,40.71z"/>
	<path d="M26,8.61c2.11,3.16,4.29,6.31,6.54,9.42c0.34,0.12,0.67,0.27,0.99,0.46c0.06,0.04,0.08,0.11,0.04,0.17
		c-0.02,0.04-0.06,0.06-0.11,0.06c-0.02,0-0.04-0.01-0.06-0.02c-0.19-0.11-0.38-0.19-0.57-0.28c0.81,1.12,1.63,2.22,2.46,3.33
		c-0.25-0.61-0.5-1.42-0.61-2.38c-0.84-1.14-1.66-2.28-2.48-3.43c0.05,0.15,0.1,0.3,0.15,0.43c0.03,0.06,0,0.14-0.07,0.16
		c-0.02,0.01-0.03,0.01-0.05,0.01c-0.05,0-0.1-0.03-0.12-0.08c-0.12-0.29-0.24-0.67-0.33-1.09c-2.31-3.25-4.56-6.54-6.72-9.84
		c-0.09-0.14-0.19-0.29-0.29-0.43c-0.14-0.21-0.42-0.27-0.64-0.13C24.14,4.98,24.13,4.99,24.12,5c-0.19,0.15-0.24,0.41-0.11,0.61
		c0.03,0.05,0.07,0.1,0.1,0.16C24.73,6.72,25.37,7.67,26,8.61z"/>
	<path d="M45.22,34.37c0.34,0.09,0.68,0.19,1.02,0.3c0-0.17,0.01-0.34,0.01-0.51c-0.56-0.67-1.12-1.35-1.7-2.06
		c0.04,0.34,0.09,0.68,0.15,1.02c0.03,0.14-0.06,0.27-0.2,0.29c-0.02,0-0.03,0-0.05,0c-0.01,0-0.01-0.01-0.02-0.01
		c0.19,0.23,0.37,0.45,0.56,0.68C45.07,34.19,45.15,34.28,45.22,34.37z"/>
	<path d="M37.94,24.56c-0.29-0.25-0.7-0.56-1.21-0.87c0.77,1.01,1.5,1.98,2.2,2.87c0.43,0.12,0.86,0.27,1.28,0.45
		c0.13,0.05,0.19,0.2,0.13,0.33c-0.05,0.13-0.2,0.19-0.33,0.13c-0.17-0.08-0.35-0.13-0.53-0.2c0.59,0.75,1.16,1.47,1.7,2.15
		c-0.15-0.55-0.27-1.19-0.33-1.9c-0.83-1.05-1.69-2.16-2.62-3.37c0.15,0.74,0.35,1.34,0.52,1.76c0.03,0.06,0,0.14-0.07,0.16
		c-0.02,0.01-0.03,0.01-0.05,0.01c-0.05,0-0.1-0.03-0.12-0.08c-0.15-0.36-0.32-0.85-0.46-1.44c-0.02,0.01-0.03,0.02-0.05,0.02
		C37.99,24.59,37.96,24.58,37.94,24.56z"/>
	<path d="M46.3,35.67c-0.02-0.05-0.04-0.1-0.04-0.15c0-0.01,0-0.03,0-0.04c-0.06-0.02-0.11-0.04-0.17-0.06
		c0.04,0.05,0.08,0.1,0.12,0.15C46.24,35.6,46.27,35.63,46.3,35.67z"/>
	<path d="M68.51,50c-2.05,2.34-3.56,5.14-4.41,8.14c0.06,0,0.12,0,0.18,0c0.28,0.01,0.49,0.24,0.48,0.52s-0.24,0.49-0.52,0.48
		c-0.13,0-0.26,0-0.39,0c0.01,0.22,0.15,0.41,0.37,0.47c0.04,0.01,0.08,0.01,0.12,0.01c0.18,0,0.35-0.11,0.44-0.27
		c0.02-0.04,0.04-0.07,0.05-0.12c0.75-3.17,2.29-6.13,4.42-8.58c1.72-1.97,3.8-3.57,6.18-4.79c0.11-0.06,0.22-0.13,0.33-0.18
		c0.25-0.12,0.35-0.42,0.23-0.67c-0.12-0.25-0.42-0.35-0.67-0.23c-0.14,0.07-0.27,0.16-0.41,0.23C72.46,46.29,70.29,47.95,68.51,50z
		"/>
	<path d="M63.13,42.78c-1.94,2.22-3.39,4.85-4.24,7.67c-0.09,0.29-0.16,0.58-0.24,0.87c0.35,0.06,0.68,0.12,0.98,0.19
		c0.76-2.98,2.22-5.76,4.24-8.08c1.73-1.98,3.83-3.58,6.23-4.79c0.05-0.03,0.1-0.06,0.15-0.08c0.25-0.12,0.35-0.42,0.23-0.67
		c-0.12-0.25-0.42-0.35-0.67-0.23c-0.13,0.07-0.25,0.15-0.39,0.21C67.01,39.14,64.89,40.77,63.13,42.78z"/>
	<path d="M59.14,38.29c-1.94,2.17-2.9,5.12-2.83,8.57c0.01,0.3,0.02,0.6,0.04,0.91c0.24,0.12,0.45,0.23,0.62,0.33
		c0.03,0.01,0.04,0.04,0.06,0.06c0.04-0.06,0.06-0.13,0.07-0.2c0-0.02,0.01-0.03,0.01-0.05c-0.31-3.72,0.59-6.87,2.6-9.12
		c1.66-1.86,4.03-3.11,7.05-3.71c0.06-0.01,0.11-0.03,0.17-0.04c0.2-0.04,0.34-0.23,0.3-0.44c-0.04-0.2-0.23-0.34-0.44-0.3
		c-0.23,0.04-0.45,0.1-0.67,0.15C63.17,35.13,60.82,36.41,59.14,38.29z"/>
	<path d="M53.32,33.38c-1.6,2.32-2.2,4.65-2.39,6.47c-0.04,0.34-0.06,0.67-0.08,0.97c0.26,0.1,0.5,0.19,0.72,0.28
		c0.01-0.04,0.02-0.07,0.03-0.11c0-0.09,0.01-0.19,0.02-0.28c0.09-1.79,0.58-4.36,2.33-6.91c1.83-2.66,4.17-4.06,5.82-4.76
		c0.06-0.02,0.1-0.06,0.14-0.1c0.09-0.1,0.12-0.25,0.06-0.39c-0.08-0.19-0.3-0.28-0.49-0.2c-0.06,0.03-0.13,0.06-0.19,0.09
		C57.54,29.21,55.18,30.67,53.32,33.38z"/>
	<path d="M48.12,27.9c-1.15,1.83-1.78,3.97-1.87,6.26c-0.01,0.17-0.01,0.34-0.01,0.51c0.25,0.09,0.5,0.18,0.76,0.28
		c-0.05-2.44,0.55-4.73,1.76-6.65c1.09-1.73,2.63-3.15,4.59-4.22c0.02-0.01,0.03-0.02,0.04-0.03c0.15-0.11,0.2-0.31,0.11-0.47
		c-0.1-0.18-0.32-0.25-0.51-0.15c-0.09,0.05-0.17,0.11-0.26,0.16C50.78,24.7,49.23,26.14,48.12,27.9z"/>
	<path d="M46.3,35.67c0.02,0.04,0.06,0.08,0.09,0.11c0.07,0.05,0.15,0.09,0.24,0.09c0.01,0,0.01,0,0.02,0
		c0.12-0.01,0.22-0.07,0.28-0.17c-0.04,0-0.08-0.01-0.13-0.03c-0.18-0.08-0.37-0.14-0.55-0.2c0,0.01,0,0.03,0,0.04
		C46.26,35.57,46.28,35.62,46.3,35.67z"/>
	<path d="M41.24,23.35c-0.45,1.53-0.5,2.95-0.39,4.17c0.07,0.71,0.19,1.35,0.33,1.9c0.04,0.17,0.09,0.33,0.14,0.48
		c0.03,0.11,0.13,0.18,0.24,0.18c0.02,0,0.05,0,0.07-0.01c0.02-0.01,0.02-0.02,0.04-0.03c0.1-0.06,0.16-0.17,0.12-0.28
		c-0.13-0.42-0.25-0.93-0.35-1.48c-0.22-1.33-0.26-2.98,0.27-4.79c0.68-2.32,1.99-3.93,3.12-4.96c0.17-0.15,0.33-0.29,0.48-0.42
		c0.11-0.09,0.12-0.24,0.04-0.35c-0.09-0.11-0.25-0.12-0.35-0.04c-0.2,0.16-0.4,0.34-0.61,0.54C43.24,19.35,41.93,21,41.24,23.35z"
		/>
	<path d="M45.17,25.6c-0.89,1.76-1.28,3.75-1.17,5.83c0.03,0.56,0.09,1.12,0.2,1.69c0.01,0.03,0.01,0.06,0.01,0.1
		c0.02,0.11,0.12,0.19,0.23,0.2c0.01,0,0.01,0.01,0.02,0.01c0.01,0,0.03,0,0.05,0c0.14-0.03,0.23-0.16,0.2-0.29
		c-0.06-0.34-0.11-0.68-0.15-1.02c-0.25-2.25,0.11-4.4,1.06-6.28c0.87-1.71,2.2-3.17,3.94-4.36c0.11-0.08,0.21-0.16,0.32-0.24
		c0.12-0.07,0.15-0.23,0.08-0.35s-0.23-0.15-0.34-0.08c-0.18,0.11-0.33,0.25-0.5,0.37C47.38,22.39,46.05,23.87,45.17,25.6z"/>
	<path d="M33.12,10.17c-0.17,0.19-0.34,0.44-0.52,0.72c-0.36,0.57-0.71,1.3-0.87,2.23c-0.15,0.87-0.08,1.63,0.06,2.27
		c0.09,0.42,0.2,0.8,0.33,1.09c0.02,0.05,0.07,0.08,0.12,0.08c0.02,0,0.03,0,0.05-0.01c0.06-0.03,0.09-0.1,0.07-0.16
		c-0.05-0.13-0.1-0.28-0.15-0.43c-0.23-0.71-0.41-1.66-0.22-2.79c0.15-0.88,0.48-1.58,0.82-2.12c0.17-0.27,0.35-0.52,0.51-0.71
		c0.04-0.05,0.04-0.12-0.01-0.17c0,0,0-0.01-0.01-0.01c0,0-0.01,0-0.02-0.01C33.23,10.12,33.16,10.12,33.12,10.17z"/>
	<path d="M40.21,15.91c-0.82,0.94-1.78,2.4-2.2,4.37c-0.27,1.28-0.25,2.45-0.11,3.44c0.03,0.2,0.07,0.39,0.11,0.58
		c0.03,0.03,0.07,0.06,0.1,0.08c0.05,0.04,0.06,0.12,0.01,0.18c-0.01,0.01-0.03,0.02-0.05,0.02c0.14,0.59,0.31,1.08,0.46,1.44
		c0.02,0.05,0.07,0.08,0.12,0.08c0.02,0,0.03,0,0.05-0.01c0.06-0.03,0.09-0.1,0.07-0.16c-0.17-0.42-0.38-1.03-0.52-1.76
		c-0.21-1.05-0.3-2.36,0.01-3.83c0.42-1.95,1.37-3.38,2.18-4.29c0.27-0.3,0.51-0.55,0.73-0.74c0,0,0.01-0.01,0.02-0.01
		c0.05-0.05,0.06-0.13,0.01-0.18c-0.05-0.05-0.13-0.06-0.18-0.01c-0.02,0.02-0.05,0.05-0.07,0.07
		C40.72,15.36,40.47,15.61,40.21,15.91z"/>
	<path d="M36.25,13.47c-0.62,0.85-1.23,2.02-1.5,3.51c-0.16,0.87-0.16,1.68-0.08,2.4c0.11,0.96,0.36,1.77,0.61,2.38
		c0,0.01,0.01,0.01,0.01,0.02c0,0.01,0.01,0,0.01,0.01c0.02,0.04,0.06,0.07,0.1,0.07c0.02,0,0.03,0,0.05-0.01
		c0.06-0.03,0.09-0.1,0.07-0.16c-0.21-0.5-0.42-1.14-0.54-1.89c-0.13-0.81-0.17-1.74,0.02-2.77c0.26-1.46,0.86-2.59,1.46-3.42
		c0.22-0.3,0.44-0.56,0.64-0.78c0,0,0.01-0.01,0.01-0.01c0.05-0.05,0.04-0.13-0.01-0.18c-0.05-0.05-0.13-0.04-0.18,0.01
		c-0.01,0.01-0.03,0.03-0.04,0.04C36.68,12.91,36.46,13.17,36.25,13.47z"/>
	<path d="M50.45,53.08c2.89-1.07,5.52-1.11,7.56-0.84c0.4,0.05,0.77,0.12,1.12,0.19c0.17,0.03,0.34,0.07,0.5,0.11
		c0.22,0.05,0.43-0.05,0.54-0.23c0.03-0.04,0.05-0.09,0.07-0.14c0.06-0.27-0.1-0.54-0.37-0.6c-0.07-0.02-0.15-0.03-0.22-0.05
		c-0.31-0.07-0.64-0.13-0.98-0.19c-0.1-0.02-0.21-0.03-0.32-0.05c-0.35-0.05-0.72-0.09-1.1-0.12c-2.02-0.16-4.47,0-7.13,0.98
		c-4.16,1.54-6.75,4.35-8.09,6.18c-0.13,0.18-0.26,0.36-0.37,0.52c-0.15,0.23-0.09,0.54,0.14,0.69c0.09,0.06,0.18,0.08,0.28,0.08
		c0.16,0,0.32-0.08,0.42-0.22c0.03-0.05,0.08-0.11,0.12-0.17C43.77,57.54,46.27,54.63,50.45,53.08z"/>
	<path d="M62.93,58.14c-0.22,0.01-0.45,0.02-0.67,0.04c-2.57,0.16-5.12,0.78-7.47,1.83c-2.65,1.18-5.03,2.86-7.06,4.99
		c-0.19,0.2-0.18,0.52,0.02,0.71c0.1,0.09,0.22,0.14,0.35,0.14c0.13,0,0.26-0.05,0.36-0.15c1.94-2.03,4.21-3.64,6.74-4.76
		c2.44-1.09,5.09-1.69,7.75-1.78c0.2-0.01,0.4-0.01,0.6-0.01c0.1,0,0.2,0,0.3,0c0.13,0,0.26,0,0.39,0c0.28,0,0.51-0.21,0.52-0.48
		s-0.21-0.51-0.48-0.52c-0.06,0-0.12,0-0.18,0c-0.03,0-0.05,0-0.08,0C63.66,58.13,63.29,58.13,62.93,58.14z"/>
	<path d="M46.82,47.4c3.37-0.86,6.25-0.19,8.11,0.55c0.65,0.26,1.18,0.52,1.55,0.74c0.03,0.02,0.07,0.04,0.1,0.06
		c0.17,0.1,0.41,0.04,0.51-0.14c0.09-0.15,0.05-0.34-0.07-0.46c-0.02-0.02-0.04-0.04-0.06-0.06c-0.17-0.1-0.38-0.21-0.62-0.33
		c-0.23-0.12-0.5-0.24-0.78-0.36c-0.41-0.18-0.88-0.35-1.39-0.51c-1.93-0.6-4.55-0.98-7.54-0.21c-4.27,1.1-6.81,3.91-7.93,5.44
		c-0.12,0.16-0.23,0.32-0.32,0.44c-0.11,0.17-0.07,0.41,0.1,0.52c0.06,0.04,0.14,0.06,0.21,0.06c0.12,0,0.24-0.06,0.31-0.17
		c0.02-0.02,0.04-0.06,0.06-0.09C39.98,51.56,42.45,48.52,46.82,47.4z"/>
	<path d="M49.53,40.42c-1.78-0.46-4.16-0.71-6.8-0.01c-3.27,0.87-5.47,2.77-6.74,4.2c-0.14,0.16-0.12,0.39,0.03,0.53
		c0.07,0.06,0.16,0.09,0.25,0.09c0.1,0,0.21-0.04,0.28-0.13c1.2-1.36,3.28-3.15,6.37-3.97c2.96-0.79,5.58-0.31,7.32,0.27
		c0.4,0.13,0.75,0.27,1.05,0.4c0.23,0.1,0.43,0.19,0.59,0.27c0.18,0.09,0.41,0.02,0.5-0.17c0.03-0.05,0.04-0.11,0.04-0.16
		c0-0.14-0.07-0.27-0.2-0.34c-0.03-0.02-0.07-0.03-0.1-0.05c-0.16-0.08-0.34-0.16-0.55-0.25c-0.21-0.09-0.45-0.19-0.72-0.28
		c-0.14-0.05-0.29-0.1-0.45-0.15C50.13,40.58,49.84,40.5,49.53,40.42z"/>
	<path d="M45.22,34.37c-0.01,0-0.03-0.01-0.04-0.01c-1.97-0.49-3.96-0.52-5.85-0.07c-2.11,0.5-4.06,1.57-5.8,3.17
		c-0.15,0.14-0.16,0.38-0.02,0.53c0.07,0.08,0.17,0.12,0.28,0.12c0.09,0,0.18-0.03,0.25-0.1c1.64-1.51,3.48-2.52,5.46-2.99
		c2.06-0.49,4.24-0.38,6.38,0.32c0.07,0.02,0.13,0.05,0.2,0.07c0.06,0.02,0.11,0.04,0.17,0.06c0.18,0.07,0.37,0.13,0.55,0.2
		c0.04,0.02,0.08,0.02,0.13,0.03c0.15,0.01,0.3-0.08,0.36-0.23c0.01-0.01,0-0.03,0.01-0.04c0.05-0.18-0.03-0.38-0.21-0.45
		c-0.03-0.01-0.07-0.02-0.1-0.04c-0.25-0.1-0.5-0.19-0.76-0.28C45.9,34.55,45.56,34.45,45.22,34.37z"/>
	<path d="M42.61,31.25c0.02,0,0.03-0.01,0.05,0c0.12,0.01,0.23-0.05,0.26-0.16c0.04-0.13-0.04-0.27-0.17-0.31
		c-0.2-0.06-0.4-0.1-0.6-0.14c-1.48-0.36-2.98-0.46-4.49-0.25c-2.42,0.33-4.31,1.34-5.58,2.26c-0.18,0.13-0.35,0.26-0.51,0.38
		c-0.11,0.09-0.13,0.24-0.04,0.35c0.05,0.06,0.12,0.09,0.2,0.09c0.05,0,0.11-0.02,0.16-0.05c0.1-0.08,0.21-0.16,0.32-0.24
		c1.22-0.91,3.09-1.95,5.52-2.29C39.37,30.65,41.01,30.77,42.61,31.25z"/>
	<path d="M39.49,27.27c0.18,0.07,0.36,0.12,0.53,0.2c0.13,0.05,0.27,0,0.33-0.13c0.05-0.13,0-0.27-0.13-0.33
		c-0.42-0.18-0.85-0.32-1.28-0.45c-1.02-0.29-2.06-0.43-3.13-0.42c-2.01,0.03-3.67,0.63-4.83,1.23c-0.2,0.1-0.4,0.21-0.57,0.31
		c-0.12,0.07-0.16,0.22-0.09,0.34c0.05,0.08,0.13,0.12,0.22,0.12c0.04,0,0.09-0.01,0.13-0.03c0.13-0.07,0.27-0.15,0.41-0.23
		c1.12-0.59,2.75-1.21,4.75-1.24C37.06,26.61,38.3,26.83,39.49,27.27z"/>
	<path d="M33.1,22.57c1.5,0.08,2.72,0.59,3.62,1.12c0.51,0.3,0.92,0.62,1.21,0.87c0.02,0.02,0.05,0.03,0.08,0.03
		c0.02,0,0.03-0.01,0.05-0.02c0.02-0.01,0.04-0.01,0.05-0.02c0.04-0.05,0.04-0.13-0.01-0.18c-0.03-0.02-0.07-0.05-0.1-0.08
		c-0.38-0.32-0.94-0.72-1.64-1.08c-0.87-0.44-1.95-0.82-3.25-0.89c-1-0.05-2,0.09-2.98,0.4c-0.21,0.07-0.42,0.13-0.63,0.22
		c-0.06,0.03-0.09,0.1-0.07,0.16c0.03,0.06,0.1,0.09,0.16,0.07c0.19-0.08,0.39-0.14,0.59-0.2C31.14,22.66,32.12,22.51,33.1,22.57z"
		/>
	<path d="M29.09,18.16c0.69-0.2,1.54-0.3,2.48-0.14c0.43,0.08,0.85,0.23,1.25,0.41c0.19,0.09,0.39,0.17,0.57,0.28
		c0.02,0.01,0.04,0.02,0.06,0.02c0.04,0,0.08-0.02,0.11-0.06c0.04-0.06,0.02-0.14-0.04-0.17c-0.32-0.19-0.65-0.34-0.99-0.46
		c-0.3-0.11-0.61-0.2-0.92-0.25c-0.98-0.17-1.87-0.06-2.59,0.14c-0.36,0.1-0.67,0.22-0.94,0.35c-0.01,0.01-0.03,0.01-0.05,0.02
		c-0.06,0.03-0.09,0.1-0.06,0.17c0.03,0.06,0.11,0.09,0.17,0.06c0,0,0,0,0.01,0C28.41,18.39,28.73,18.26,29.09,18.16z"/>
</g>
</svg>
