<?xml version="1.0" encoding="utf-8"?>
<!-- Generator: Adobe Illustrator 23.0.1, SVG Export Plug-In . SVG Version: 6.00 Build 0)  -->
<svg version="1.1" baseProfile="tiny" id="Layer_1" xmlns="http://www.w3.org/2000/svg" xmlns:xlink="http://www.w3.org/1999/xlink"
	 x="0px" y="0px" viewBox="0 0 432 77.95" xml:space="preserve">
<g>
	<path fill="#00A76D" d="M398.27,38.27c-38.94,25.05-71.69,0.33-72.02,0.08c-0.14-0.11-0.3-0.19-0.46-0.25
		c-40.71-25.85-74.93,0.09-75.27,0.35c-0.07,0.05-0.13,0.11-0.19,0.17c-38.81,24.73-71.39,0.14-71.71-0.12
		c-0.11-0.08-0.23-0.15-0.35-0.21c-36.67-23.43-68.13-4.77-74.36-0.56c-0.07,0.03-0.14,0.07-0.21,0.11
		c-38.95,25.05-71.69,0.33-72.02,0.08c-0.7-0.54-1.7-0.41-2.24,0.28c-0.54,0.7-0.41,1.7,0.28,2.24c0.34,0.26,34.1,25.85,74.43,0.88
		c0.21-0.05,0.41-0.15,0.59-0.29c0.33-0.25,33.01-25.02,72.02,0.08c0.04,0.03,0.09,0.05,0.14,0.08
		c2.06,1.49,16.81,11.63,37.63,11.63c11.2,0,24.15-2.94,37.82-11.73c0.15-0.09,0.27-0.21,0.37-0.33
		c3.15-2.28,34.58-23.65,71.76,0.27c0.07,0.05,0.15,0.09,0.22,0.12c4.06,2.89,36.83,24.51,75.28-0.23c0.74-0.48,0.95-1.46,0.48-2.2
		C400,38,399.01,37.79,398.27,38.27z"/>
	<path fill="#34AD7B" d="M51.67,69.98c1.13-0.57,2.12-0.92,2.79-1.12c7.51-2.85,11.93-7.04,11.33-10.09
		c-0.13-0.65-0.55-1.63-2.12-2.65c-0.91-0.94-1.75-1.26-2.39-1.36c-3.25-0.51-7.37,3.73-9.99,10.73c-0.23,0.76-0.63,1.89-1.29,3.18
		c-1.11,2.16-2.3,3.4-2.1,3.59C48.11,72.46,49.38,71.15,51.67,69.98z"/>
	<path fill="#34AD7B" d="M200.52,70.96c1.13-0.57,2.12-0.92,2.79-1.12c7.51-2.85,11.93-7.04,11.33-10.09
		c-0.12-0.65-0.55-1.63-2.12-2.65c-0.91-0.94-1.75-1.26-2.39-1.36c-3.25-0.51-7.37,3.73-9.99,10.73c-0.23,0.76-0.62,1.89-1.29,3.18
		c-1.11,2.16-2.29,3.4-2.1,3.59C196.97,73.43,198.23,72.12,200.52,70.96z"/>
	<path fill="#34AD7B" d="M350.84,70.47c1.13-0.57,2.12-0.92,2.79-1.12c7.51-2.85,11.93-7.04,11.33-10.09
		c-0.12-0.65-0.55-1.63-2.12-2.65c-0.91-0.94-1.75-1.26-2.39-1.36c-3.25-0.51-7.37,3.73-9.99,10.73c-0.23,0.76-0.63,1.89-1.29,3.18
		c-1.11,2.16-2.3,3.4-2.1,3.59C347.28,72.95,348.55,71.63,350.84,70.47z"/>
	<path fill="#34AD7B" d="M288.22,23.55c0.64-0.1,1.48-0.42,2.39-1.36c1.57-1.02,1.99-2,2.12-2.65c0.6-3.06-3.82-7.24-11.33-10.09
		c-0.67-0.2-1.66-0.54-2.79-1.12c-2.29-1.16-3.56-2.47-3.76-2.28c-0.19,0.19,0.99,1.44,2.1,3.59c0.67,1.29,1.06,2.42,1.29,3.18
		C280.86,19.81,284.97,24.06,288.22,23.55z"/>
	<path fill="#34AD7B" d="M147.18,24.52c0.64-0.1,1.48-0.42,2.39-1.36c1.57-1.02,1.99-2,2.12-2.65c0.6-3.06-3.82-7.24-11.33-10.09
		c-0.67-0.2-1.66-0.54-2.79-1.12c-2.29-1.16-3.56-2.47-3.76-2.28c-0.2,0.19,0.99,1.44,2.1,3.59c0.66,1.29,1.06,2.42,1.29,3.18
		C139.81,20.79,143.93,25.03,147.18,24.52z"/>
</g>
</svg>
